<svg id="visual" viewBox="0 0 900 600" width="900" height="600" xmlns="http://www.w3.org/2000/svg" xmlns:xlink="http://www.w3.org/1999/xlink" version="1.1"><rect x="0" y="0" width="900" height="600" fill="#111827"></rect><path d="M0 255L11.5 279.3C23 303.7 46 352.3 69 375.3C92 398.3 115 395.7 138.2 383C161.3 370.3 184.7 347.7 207.8 331C231 314.3 254 303.7 277 296.7C300 289.7 323 286.3 346 309.5C369 332.7 392 382.3 415.2 388.3C438.3 394.3 461.7 356.7 484.8 349.7C508 342.7 531 366.3 554 360.7C577 355 600 320 623 303.8C646 287.7 669 290.3 692.2 293C715.3 295.7 738.7 298.3 761.8 286.5C785 274.7 808 248.3 831 248.2C854 248 877 274 888.5 287L900 300L900 601L888.5 601C877 601 854 601 831 601C808 601 785 601 761.8 601C738.7 601 715.3 601 692.2 601C669 601 646 601 623 601C600 601 577 601 554 601C531 601 508 601 484.8 601C461.7 601 438.3 601 415.2 601C392 601 369 601 346 601C323 601 300 601 277 601C254 601 231 601 207.8 601C184.7 601 161.3 601 138.2 601C115 601 92 601 69 601C46 601 23 601 11.5 601L0 601Z" fill="#f97316" stroke-linecap="round" stroke-linejoin="miter"></path></svg>